Coordinates
version=1
nRows=17
nColumns=36
inDegrees=yes

Units are S.I. units (second, meters, Newtons, ...)
If the header above contains a line with 'inDegrees', this indicates whether rotational values are in degrees (yes) or radians (no).

endheader
time	pelvis_tilt	pelvis_list	pelvis_rotation	pelvis_tx	pelvis_ty	pelvis_tz	hip_flexion_r	hip_adduction_r	hip_rotation_r	knee_angle_r	knee_angle_r_beta	ankle_angle_r	subtalar_angle_r	mtp_angle_r	hip_flexion_l	hip_adduction_l	hip_rotation_l	knee_angle_l	knee_angle_l_beta	ankle_angle_l	subtalar_angle_l	mtp_angle_l	lumbar_extension	lumbar_bending	lumbar_rotation	arm_flex_r	arm_add_r	arm_rot_r	elbow_flex_r	pro_sup_r	arm_flex_l	arm_add_l	arm_rot_l	elbow_flex_l	pro_sup_l
      4.22916670	     -9.54150609	     -1.46544878	     -2.29943066	      0.36639338	      0.93023825	     -0.08733952	     12.38110723	     -3.62046391	     -4.89288419	      4.01214801	      0.07002519	      3.23475256	     -7.44225706	     -7.49999987	      7.48750374	     -3.10995253	      3.12811931	      0.84462983	      0.01474157	      5.54810780	     -6.20963574	     -7.49999987	     -8.10270994	     -2.20165606	      3.01691299	     54.00733304	     -8.33488675	     23.33831237	    138.76376348	    100.45291037	     55.01157072	     -9.31506849	     29.02929054	    131.58669790	     93.14663907
      4.23333330	     -9.77569077	     -1.37221186	     -2.43695884	      0.36656751	      0.93386881	     -0.08734524	     12.77244075	     -3.75874693	     -4.85816640	      4.03627872	      0.07044635	      3.18689829	     -7.11538283	     -7.49999987	      7.78814157	     -2.97470842	      3.32761534	      0.86302027	      0.01506255	      5.38636020	     -6.58838418	     -7.49999987	     -8.01499758	     -2.15577576	      3.03407847	     53.49863807	     -8.35520628	     23.52896249	    138.95045546	    100.22001615	     54.59729397	     -9.44170475	     28.92083053	    131.80504134	     92.51990685
      4.23750000	     -9.98134639	     -1.31755055	     -2.59208912	      0.36653048	      0.93337500	     -0.08677647	     13.06756381	     -3.81786309	     -4.40842665	      3.95491445	      0.06902628	      2.94908601	     -7.35823553	     -7.49999987	      8.04704880	     -2.88545158	      3.42005799	      0.89553662	      0.01563006	      5.30777365	     -7.09825786	     -7.49999987	     -7.93361291	     -2.05248878	      3.19045704	     53.06012884	     -8.41250811	     23.74409212	    139.11576421	    100.02849053	     54.16252812	     -9.38841503	     28.91727325	    131.92622069	     92.37324567
      4.24166670	    -10.13090816	     -1.19047208	     -2.69678286	      0.36673804	      0.92770383	     -0.08672846	     13.30376560	     -3.99303335	     -4.14062713	      3.99864724	      0.06978956	      2.85248105	     -7.42057223	     -7.49999987	      8.27373203	     -2.72137637	      3.39292965	      0.93693968	      0.01635268	      5.29453410	     -7.01670688	     -7.49999987	     -7.76065235	     -2.03896383	      3.09075302	     53.10190338	     -8.05441902	     24.02963741	    138.91652351	     98.65096812	     53.86306430	     -9.46020773	     28.90048736	    132.31918382	     91.74590040
      4.24583330	    -10.42188995	     -1.10773421	     -2.79203201	      0.36682874	      0.92425129	     -0.08649309	     13.69689634	     -4.11365571	     -3.73934272	      4.08456063	      0.07128903	      2.73214601	     -7.78972300	     -7.49999987	      8.64805713	     -2.62516865	      3.78281696	      0.99727170	      0.01740567	      5.12279945	     -7.90239055	     -7.49999987	     -7.31087304	     -1.97188035	      3.19842501	     53.30923061	     -7.80152294	     23.91566548	    138.75012312	     98.81578347	     53.78781526	     -9.44280022	     28.90396564	    132.51244949	     92.15715576
      4.25000000	    -10.39746330	     -1.05793540	     -2.91600019	      0.36690445	      0.92834192	     -0.08638069	     13.69610512	     -4.19628968	     -3.53866478	      4.13488485	      0.07216735	      2.72960830	     -7.70068609	     -7.49999987	      8.63111510	     -2.58315933	      3.88978838	      1.05899057	      0.01848287	      5.24588360	     -7.86992352	     -7.49999987	     -7.28098180	     -1.90633995	      3.46210115	     53.31693043	     -7.66015789	     23.92904868	    138.68178834	     98.83103533	     53.58740637	     -9.45457234	     28.96220827	    132.71017188	     92.20524170
      4.25416670	    -10.52161878	     -1.03180749	     -3.02060371	      0.36683384	      0.92512203	     -0.08577649	     13.80917418	     -4.19652617	     -3.07276067	      4.12390077	      0.07197565	      2.66042194	     -8.07039677	     -7.49999987	      8.76426774	     -2.56576691	      3.92591470	      1.12446018	      0.01962553	      5.38644450	     -7.90348141	     -7.49999987	     -6.96434025	     -1.61979986	      3.21502364	     53.59507898	     -7.05320625	     24.23270368	    138.35656249	     99.52724416	     53.03781594	    -10.01139187	     28.30090718	    133.67389037	     94.04704569
      4.25833330	    -10.51021602	     -1.01398051	     -3.07031256	      0.36692967	      0.92919726	     -0.08590986	     13.71336594	     -4.21265712	     -2.73195405	      4.03700469	      0.07045902	      2.58834743	     -8.21608923	     -7.49999987	      8.76555928	     -2.53897953	      4.11842538	      1.16956651	      0.02041279	      5.40917840	     -8.04298238	     -7.49999987	     -7.02201395	     -1.53787704	      3.12265556	     53.68216536	     -6.66086953	     24.61809675	    138.08432259	     99.87384620	     52.59070841	    -10.31913183	     28.10790699	    134.16383946	     94.16997775
      4.26250000	    -10.52371488	     -0.98143721	     -3.19302898	      0.36681908	      0.92593261	     -0.08561050	     13.67616095	     -4.21046029	     -2.22910931	      3.94139995	      0.06879041	      2.55577993	     -8.45065557	     -7.49999987	      8.76577103	     -2.53085604	      4.29641833	      1.20082454	      0.02095834	      5.50076211	     -8.19904250	     -7.49999987	     -6.93447948	     -1.48785166	      3.14033621	     53.74635993	     -6.37409799	     24.85352495	    137.72637733	    100.11084173	     52.35805343	    -10.68689853	     27.72390978	    134.74668142	     94.25237510
      4.26666670	    -10.50350201	     -0.97154971	     -3.28291989	      0.36687319	      0.92381776	     -0.08591638	     13.59862301	     -4.17705044	     -1.72280385	      3.82963636	      0.06683976	      2.34914244	     -8.97494529	     -7.49999987	      8.75743230	     -2.55068428	      4.45166630	      1.25919973	      0.02197718	      5.63871378	     -8.31141845	     -7.49999987	     -6.79791901	     -1.45850618	      3.04090722	     53.48940544	     -6.72236229	     24.69704993	    137.85864466	    100.17281880	     52.48480890	    -10.68105280	     27.66112546	    134.69902211	     94.06848057
      4.27083330	    -10.56234183	     -0.85887649	     -3.38311990	      0.36261334	      0.92982128	     -0.09003410	     13.68202084	     -4.31380981	     -1.57800926	      3.70048185	      0.06458559	      2.27604972	     -8.91585941	     -7.49999987	      8.89849857	     -2.39504475	      4.53415915	      1.22053970	      0.02130244	      5.56293231	     -8.28204396	     -7.49999987	     -6.88618010	     -1.43467169	      2.89592043	     53.52136168	     -6.91003956	     24.65114578	    137.79635538	    100.16242952	     52.43243406	    -10.66549787	     27.65828679	    134.66213650	     94.07185286
      4.27500000	    -10.53746320	     -0.77995717	     -3.42968118	      0.36242560	      0.92751033	     -0.08986700	     13.60492466	     -4.38410687	     -1.15857722	      3.37707502	      0.05894108	      1.82468821	     -9.55709059	     -7.49999987	      8.97807084	     -2.24044363	      4.87343719	      1.25853330	      0.02196555	      5.22676071	     -8.95750245	     -7.49999987	     -7.02490095	     -1.48881756	      2.71041352	     53.59561705	     -7.40287274	     24.53037563	    137.69647763	    100.42272830	     52.72682037	    -10.77922350	     27.39854528	    134.27980991	     94.59714627
      4.27916670	    -10.63330588	     -0.68297478	     -3.50771291	      0.36233085	      0.92723102	     -0.08946678	     13.70885051	     -4.49533842	     -0.73798174	      3.23721786	      0.05650011	      1.51095588	     -9.99561260	     -7.49999987	      9.16517632	     -2.07162426	      5.06748262	      1.30911508	      0.02284837	      4.98167144	     -9.48735426	     -7.49999987	     -6.95525149	     -1.53067054	      2.55504805	     53.52426554	     -7.98369812	     24.50278953	    137.71915000	    100.15860174	     52.95574755	    -10.69941139	     27.15847556	    133.72647633	     94.08384827
      4.28333330	    -10.60144294	     -0.60557961	     -3.67409802	      0.36244160	      0.93107419	     -0.08955352	     13.69057355	     -4.56749998	     -0.55010502	      3.09415017	      0.05400311	      1.43400957	     -9.88697230	     -7.49999987	      9.14524092	     -1.98181052	      5.12834162	      1.28933196	      0.02250309	      4.86099287	     -9.51117423	     -7.49999987	     -7.08167730	     -1.58253158	      2.34342340	     53.37880541	     -8.43462658	     24.93891712	    137.31249043	    101.20022786	     52.69630032	    -10.80844125	     26.55233419	    133.74187736	     94.15348049
      4.28750000	    -10.58677511	     -0.56435549	     -3.86136508	      0.36228038	      0.93363118	     -0.08930676	     13.69648302	     -4.54632082	     -0.32154986	      2.92112107	      0.05098318	      1.22045261	     -9.98833604	     -7.49999987	      9.12512432	     -1.94159345	      5.24216872	      1.26928065	      0.02215313	      4.60155043	     -9.71582419	     -7.49999987	     -7.25413646	     -1.67526847	      1.98143526	     52.72910490	     -8.77571476	     25.22705683	    137.30629050	    101.63737036	     52.31226155	    -11.31864346	     26.21678035	    134.02689110	     93.70047791
      4.29166670	    -10.65006550	     -0.55030204	     -4.05104800	      0.36225635	      0.92762371	     -0.08940340	     13.72283538	     -4.51190042	      0.08742401	      2.71041220	      0.04730562	      1.07202982	    -10.17334995	     -7.49999987	      9.15080229	     -1.94638942	      5.34218092	      1.25981537	      0.02198793	      4.42744659	    -10.07830574	     -7.49999987	     -7.23048048	     -1.77989307	      1.76269112	     52.25181793	     -9.43003990	     24.83099622	    137.38470405	    100.74518575	     52.29719075	    -11.69695605	     25.74286815	    134.65405465	     92.82696247
      4.29583330	    -10.82985810	     -0.55447236	     -4.20674219	      0.36221895	      0.92718924	     -0.08905936	     13.85532633	     -4.45217184	      0.45689064	      2.51583723	      0.04390964	      1.03107817	    -10.21274486	     -7.49999987	      9.29922100	     -2.01489617	      5.47716605	      1.25242488	      0.02185894	      4.36493686	    -10.36215116	     -7.49999987	     -7.07533789	     -1.90901172	      1.69273824	     51.38000625	    -10.13291686	     23.79273611	    138.13359997	    101.43661950	     52.24577195	    -11.77743231	     25.96945198	    135.35654507	     92.77290986
